<svg width="200" height="200" viewBox="0 0 200 200" xmlns="http://www.w3.org/2000/svg">
    <!--<g fill="none" stroke="#dddddd" stroke-width="1">
        <line x1="0" y1="20" x2="200" y2="20" />
        <line x1="0" y1="40" x2="200" y2="40" />
        <line x1="0" y1="60" x2="200" y2="60" />
        <line x1="0" y1="80" x2="200" y2="80" />
        <line x1="0" y1="100" x2="200" y2="100" />
        <line x1="0" y1="120" x2="200" y2="120" />
        <line x1="0" y1="140" x2="200" y2="140" />
        <line x1="0" y1="160" x2="200" y2="160" />
        <line x1="0" y1="180" x2="200" y2="180" />
        <line x1="100" y1="0" x2="100" y2="200" />

        <line x1="0" y1="200" x2="40" y2="0" />
        <line x1="40" y1="200" x2="80" y2="0" />
        <line x1="80" y1="200" x2="120" y2="0" />
        <line x1="120" y1="200" x2="160" y2="0" />
        <line x1="160" y1="200" x2="200" y2="0" />
    </g>-->
    <g fill="#13ab78" fill-rule="evenodd">
        <path fill="#065f3b" d="M 85 20 Q 90 20 93 35 L 130 180 L 90 180 Q 87 180 85 175 L 45 20 Z" />
        <path d="M 10 150 L 35 25 Q 37 20 42 20 L 85 20 Q 80 20 76 35 L 54 150 Z" />
        <path d="M 90 180 Q 93 180 95 175 L 105 140 L 172 140 L 165 175 Q 163 180 157 180 Z" />
    </g>
</svg>